<svg width="400" height="400" viewBox="0 0 400 400" fill="none" xmlns="http://www.w3.org/2000/svg">
<rect width="400" height="400" fill="#665B4A"/>
<ellipse cx="199.5" cy="199.5" rx="157.5" ry="130.5" fill="#62852A"/>
<circle cx="128.5" cy="180.5" r="10.5" fill="#811F1F"/>
<circle cx="333.5" cy="162.5" r="10.5" fill="#811F1F"/>
<circle cx="286.5" cy="169.5" r="10.5" fill="#811F1F"/>
<circle cx="312.5" cy="210.5" r="10.5" fill="#811F1F"/>
<circle cx="276.5" cy="257.5" r="10.5" fill="#811F1F"/>
<circle cx="231.5" cy="293.5" r="10.5" fill="#811F1F"/>
<circle cx="242.5" cy="215.5" r="10.5" fill="#811F1F"/>
<circle cx="276.5" cy="110.5" r="10.5" fill="#811F1F"/>
<circle cx="221.5" cy="130.5" r="10.5" fill="#811F1F"/>
<circle cx="188.5" cy="99.5" r="10.5" fill="#811F1F"/>
<circle cx="199.5" cy="246.5" r="10.5" fill="#811F1F"/>
<circle cx="138.5" cy="304.5" r="10.5" fill="#811F1F"/>
<circle cx="107.5" cy="120.5" r="10.5" fill="#811F1F"/>
<circle cx="68.5" cy="194.5" r="10.5" fill="#811F1F"/>
<circle cx="210.5" cy="169.5" r="10.5" fill="#811F1F"/>
<circle cx="149.5" cy="256.5" r="10.5" fill="#811F1F"/>
<circle cx="161.5" cy="204.5" r="10.5" fill="#811F1F"/>
<circle cx="171.5" cy="151.5" r="10.5" fill="#811F1F"/>
<circle cx="97.5" cy="235.5" r="10.5" fill="#811F1F"/>
</svg>
