<svg width="403" height="401" viewBox="0 0 403 401" fill="none" xmlns="http://www.w3.org/2000/svg">
<rect x="2" width="400" height="400" fill="#997F60"/>
<line x1="200.891" y1="399.99" x2="251.891" y2="343.99" stroke="black" stroke-width="3"/>
<line x1="251.54" y1="345.342" x2="225.54" y2="234.342" stroke="black" stroke-width="3"/>
<line x1="225.574" y1="235.534" x2="258.574" y2="134.534" stroke="black" stroke-width="3"/>
<line x1="259.112" y1="136.209" x2="176.112" y2="75.2087" stroke="black" stroke-width="3"/>
<line x1="176.566" y1="76.5602" x2="199.566" y2="1.56022" stroke="black" stroke-width="3"/>
<line x1="252.293" y1="343.677" x2="295.293" y2="320.677" stroke="black" stroke-width="3"/>
<line x1="294.686" y1="321.277" x2="316.686" y2="281.277" stroke="black" stroke-width="3"/>
<line x1="315.636" y1="281.545" x2="363.636" y2="269.545" stroke="black" stroke-width="3"/>
<line x1="361.869" y1="269.777" x2="399.869" y2="296.777" stroke="black" stroke-width="3"/>
<line x1="2.85381" y1="293.767" x2="28.8538" y2="311.767" stroke="black" stroke-width="3"/>
<line x1="27.5514" y1="311.569" x2="94.5514" y2="290.569" stroke="black" stroke-width="3"/>
<line x1="94" y1="290.5" x2="121" y2="290.5" stroke="black" stroke-width="3"/>
<line x1="226.046" y1="374.158" x2="175.046" y2="332.158" stroke="black" stroke-width="3"/>
<line x1="1.40912" y1="380.621" x2="36.4091" y2="365.621" stroke="black" stroke-width="3"/>
<line x1="35.508" y1="367.154" x2="29.508" y2="309.154" stroke="black" stroke-width="3"/>
<line x1="226.544" y1="235.429" x2="157.544" y2="213.429" stroke="black" stroke-width="3"/>
<line x1="314.533" y1="283.314" x2="305.533" y2="241.314" stroke="black" stroke-width="3"/>
<line x1="306.446" y1="242.394" x2="233.446" y2="213.394" stroke="black" stroke-width="3"/>
<line x1="360.56" y1="270.58" x2="374.56" y2="222.58" stroke="black" stroke-width="3"/>
<line x1="375.337" y1="224.346" x2="310.337" y2="192.346" stroke="black" stroke-width="3"/>
<line x1="312.893" y1="195.013" x2="258.893" y2="136.013" stroke="black" stroke-width="3"/>
<line x1="400.23" y1="295.858" x2="370.23" y2="338.858" stroke="black" stroke-width="3"/>
<line x1="34.2607" y1="365.523" x2="68.2607" y2="371.523" stroke="black" stroke-width="3"/>
<line x1="124.506" y1="347.129" x2="119.506" y2="289.129" stroke="black" stroke-width="3"/>
<line x1="125.65" y1="345.541" x2="175.65" y2="333.541" stroke="black" stroke-width="3"/>
<line x1="160.513" y1="215.41" x2="94.5126" y2="239.41" stroke="black" stroke-width="3"/>
<line x1="95.4624" y1="238.334" x2="82.4624" y2="295.334" stroke="black" stroke-width="3"/>
<line x1="195.049" y1="18.9282" x2="243.049" y2="65.9282" stroke="black" stroke-width="3"/>
<line x1="242.465" y1="65.6789" x2="258.465" y2="138.679" stroke="black" stroke-width="3"/>
<line x1="372.255" y1="222.522" x2="401.255" y2="227.522" stroke="black" stroke-width="3"/>
<line x1="3.00132" y1="226.883" x2="32.0013" y2="252.883" stroke="black" stroke-width="3"/>
<line x1="31.4687" y1="251.305" x2="20.4687" y2="304.305" stroke="black" stroke-width="3"/>
<line x1="3.03109" y1="227.855" x2="55.0311" y2="183.855" stroke="black" stroke-width="3"/>
<line x1="53.8111" y1="183.738" x2="123.811" y2="228.738" stroke="black" stroke-width="3"/>
<line x1="400.774" y1="382.864" x2="369.774" y2="338.864" stroke="black" stroke-width="3"/>
<line x1="402.441" y1="383.434" x2="350.441" y2="399.434" stroke="black" stroke-width="3"/>
<line x1="351.8" y1="398.9" x2="294.8" y2="322.9" stroke="black" stroke-width="3"/>
<line x1="353.061" y1="2.06066" x2="323.061" y2="32.0607" stroke="black" stroke-width="3"/>
<line x1="282.699" y1="398.747" x2="251.699" y2="344.747" stroke="black" stroke-width="3"/>
<line x1="284.496" y1="0.884955" x2="287.496" y2="39.885" stroke="black" stroke-width="3"/>
<line x1="287.714" y1="38.5276" x2="323.714" y2="31.5276" stroke="black" stroke-width="3"/>
<line x1="288.258" y1="36.8175" x2="249.258" y2="96.8175" stroke="black" stroke-width="3"/>
<line x1="330.784" y1="76.1218" x2="343.784" y2="58.1218" stroke="black" stroke-width="3"/>
<line x1="342.795" y1="59.8928" x2="322.795" y2="32.8928" stroke="black" stroke-width="3"/>
<line x1="365.574" y1="156.536" x2="379.574" y2="113.536" stroke="black" stroke-width="3"/>
<line x1="380.066" y1="115.174" x2="331.066" y2="76.1736" stroke="black" stroke-width="3"/>
<line x1="144.483" y1="341.226" x2="135.483" y2="400.226" stroke="black" stroke-width="3"/>
<line x1="135.117" y1="41.5046" x2="186.117" y2="45.5046" stroke="black" stroke-width="3"/>
<line x1="119.123" y1="156.995" x2="80.1225" y2="200.995" stroke="black" stroke-width="3"/>
<line x1="399.64" y1="227.633" x2="365.64" y2="154.633" stroke="black" stroke-width="3"/>
<line x1="118.777" y1="158.131" x2="177.777" y2="75.1309" stroke="black" stroke-width="3"/>
<line x1="135.5" y1="1" x2="135.5" y2="52" stroke="black" stroke-width="3"/>
<line x1="67.2547" y1="371.178" x2="86.2547" y2="400.178" stroke="black" stroke-width="3"/>
<line x1="86.0499" y1="1.92868" x2="136.05" y2="50.9287" stroke="black" stroke-width="3"/>
<line x1="100.72" y1="16.3156" x2="58.7205" y2="39.3156" stroke="black" stroke-width="3"/>
<line x1="59.4113" y1="38.4919" x2="77.4113" y2="88.4919" stroke="black" stroke-width="3"/>
<line x1="76.6786" y1="87.6623" x2="145.679" y2="122.662" stroke="black" stroke-width="3"/>
<line x1="54.5025" y1="184.086" x2="51.5025" y2="132.086" stroke="black" stroke-width="3"/>
<line x1="51.743" y1="133.181" x2="79.743" y2="90.1815" stroke="black" stroke-width="3"/>
<line x1="1.38334" y1="153.633" x2="52.3833" y2="130.633" stroke="black" stroke-width="3"/>
<line x1="372.842" y1="135.759" x2="400.842" y2="154.759" stroke="black" stroke-width="3"/>
<line x1="59.8172" y1="39.4888" x2="2.81716" y2="32.4888" stroke="black" stroke-width="3"/>
<line x1="401.879" y1="32.4951" x2="327.879" y2="26.4951" stroke="black" stroke-width="3"/>
<line x1="376.931" y1="60.8239" x2="400.931" y2="79.8239" stroke="black" stroke-width="3"/>
<line x1="377.5" y1="62" x2="377.5" y2="31" stroke="black" stroke-width="3"/>
<line x1="2.60411" y1="81.627" x2="27.6041" y2="92.627" stroke="black" stroke-width="3"/>
<line x1="27.4916" y1="91.8413" x2="32.4916" y2="138.841" stroke="black" stroke-width="3"/>
</svg>
