<svg width="416" height="413" viewBox="0 0 416 413" fill="none" xmlns="http://www.w3.org/2000/svg">
<rect x="2" width="413" height="413" fill="#117B92"/>
<path d="M2 15.4754C22.6667 7.7377 73.6 -3.09508 112 15.4754C150.4 34.0459 193.333 23.2131 210 15.4754C227.667 9.34972 270 0.773764 298 15.4754C326 30.1771 387.667 21.6011 415 15.4754" stroke="#14A4B8" stroke-width="6"/>
<path d="M2 78.9259C22.6667 71.1882 73.6 60.3554 112 78.9259C150.4 97.4964 193.333 86.6636 210 78.9259C227.667 72.8002 270 64.2242 298 78.9259C326 93.6275 387.667 85.0515 415 78.9259" stroke="#14A4B8" stroke-width="6"/>
<path d="M2 57.6472C22.6667 49.9095 73.6 39.0767 112 57.6472C150.4 76.2177 193.333 65.3849 210 57.6472C227.667 51.5215 270 42.9455 298 57.6472C326 72.3488 387.667 63.7729 415 57.6472" stroke="#14A4B8" stroke-width="6"/>
<path d="M2 36.3685C22.6667 28.6308 73.6 17.798 112 36.3685C150.4 54.939 193.333 44.1062 210 36.3685C227.667 30.2428 270 21.6668 298 36.3685C326 51.0701 387.667 42.4942 415 36.3685" stroke="#14A4B8" stroke-width="6"/>
<path d="M2 355.549C22.6667 347.811 73.6 336.978 112 355.549C150.4 374.119 193.333 363.287 210 355.549C227.667 349.423 270 340.847 298 355.549C326 370.25 387.667 361.674 415 355.549" stroke="#14A4B8" stroke-width="6"/>
<path d="M2 397.721C22.6667 389.983 73.6 379.15 112 397.721C150.4 416.291 193.333 405.458 210 397.721C227.667 391.595 270 383.019 298 397.721C326 412.422 387.667 403.846 415 397.721" stroke="#14A4B8" stroke-width="6"/>
<path d="M2 376.442C22.6667 368.704 73.6 357.871 112 376.442C150.4 395.012 193.333 384.18 210 376.442C227.667 370.316 270 361.74 298 376.442C326 391.144 387.667 382.568 415 376.442" stroke="#14A4B8" stroke-width="6"/>
<path d="M2 270.434C22.6667 262.696 73.6 251.864 112 270.434C150.4 289.005 193.333 278.172 210 270.434C227.667 264.308 270 255.732 298 270.434C326 285.136 387.667 276.56 415 270.434" stroke="#14A4B8" stroke-width="6"/>
<path d="M2 333.885C22.6667 326.147 73.6 315.314 112 333.885C150.4 352.455 193.333 341.622 210 333.885C227.667 327.759 270 319.183 298 333.885C326 348.586 387.667 340.01 415 333.885" stroke="#14A4B8" stroke-width="6"/>
<path d="M2 312.606C22.6667 304.868 73.6 294.035 112 312.606C150.4 331.176 193.333 320.344 210 312.606C227.667 306.48 270 297.904 298 312.606C326 327.307 387.667 318.731 415 312.606" stroke="#14A4B8" stroke-width="6"/>
<path d="M2 291.327C22.6667 283.589 73.6 272.757 112 291.327C150.4 309.898 193.333 299.065 210 291.327C227.667 285.201 270 276.625 298 291.327C326 306.029 387.667 297.453 415 291.327" stroke="#14A4B8" stroke-width="6"/>
<path d="M2 185.319C22.6667 177.582 73.6 166.749 112 185.319C150.4 203.89 193.333 193.057 210 185.319C227.667 179.194 270 170.618 298 185.319C326 200.021 387.667 191.445 415 185.319" stroke="#14A4B8" stroke-width="6"/>
<path d="M2 248.77C22.6667 241.032 73.6 230.199 112 248.77C150.4 267.34 193.333 256.507 210 248.77C227.667 242.644 270 234.068 298 248.77C326 263.471 387.667 254.895 415 248.77" stroke="#14A4B8" stroke-width="6"/>
<path d="M2 227.491C22.6667 219.753 73.6 208.921 112 227.491C150.4 246.062 193.333 235.229 210 227.491C227.667 221.365 270 212.789 298 227.491C326 242.193 387.667 233.617 415 227.491" stroke="#14A4B8" stroke-width="6"/>
<path d="M2 206.212C22.6667 198.475 73.6 187.642 112 206.212C150.4 224.783 193.333 213.95 210 206.212C227.667 200.087 270 191.511 298 206.212C326 220.914 387.667 212.338 415 206.212" stroke="#14A4B8" stroke-width="6"/>
<path d="M2 100.205C22.6667 92.4668 73.6 81.6341 112 100.205C150.4 118.775 193.333 107.942 210 100.205C227.667 94.0789 270 85.5029 298 100.205C326 114.906 387.667 106.33 415 100.205" stroke="#14A4B8" stroke-width="6"/>
<path d="M2 163.655C22.6667 155.917 73.6 145.085 112 163.655C150.4 182.225 193.333 171.393 210 163.655C227.667 157.529 270 148.953 298 163.655C326 178.357 387.667 169.781 415 163.655" stroke="#14A4B8" stroke-width="6"/>
<path d="M2 142.376C22.6667 134.639 73.6 123.806 112 142.376C150.4 160.947 193.333 150.114 210 142.376C227.667 136.251 270 127.675 298 142.376C326 157.078 387.667 148.502 415 142.376" stroke="#14A4B8" stroke-width="6"/>
<path d="M2 121.098C22.6667 113.36 73.6 102.527 112 121.098C150.4 139.668 193.333 128.835 210 121.098C227.667 114.972 270 106.396 298 121.098C326 135.799 387.667 127.223 415 121.098" stroke="#14A4B8" stroke-width="6"/>
</svg>
